#!OML:ASF F:\VICON\USERDATA\INSTALL\rory3\rory3.ASF
:FULLY-SPECIFIED
:DEGREES
391
root 5.38985 17.6847 42.4159 -0.77519 -1.30437 3.20555
lowerback 9.0341 -1.0886 -5.23672
upperback 0.303555 -1.9463 0.894696
thorax -4.54916 -0.842525 4.13104
lowerneck -16.7743 -2.85125 -3.11178
upperneck 16.5182 -3.58606 2.34474
head 7.97367 -1.66696 0.868648
rclavicle -9.56651e-015 -4.77083e-015
rhumerus -33.2702 -22.3895 -77.1268
rradius 23.021
rwrist 7.80613
rhand -16.16 26.1659
rfingers 7.12502
rthumb 10.0458 -3.5743
lclavicle -9.56651e-015 -4.77083e-015
lhumerus -24.6149 -5.5021 80.5412
lradius 32.6251
lwrist 9.6336
lhand -29.505 23.7009
lfingers 7.12502
lthumb -2.83946 53.6618
rfemur -30.0476 9.19315 15.1492
rtibia 16.2897
rfoot -9.63627 -15.5923
rtoes -0.418697
lfemur 13.474 -0.916816 -27.8778
ltibia 12.0775
lfoot -16.2741 -2.69402
ltoes -6.11607
392
root 5.36351 17.6621 42.5985 -0.75047 -1.23049 3.3316
lowerback 9.10066 -1.07196 -5.51864
upperback 0.444726 -1.95079 0.951463
thorax -4.42687 -0.845438 4.34981
lowerneck -17.4979 -2.91694 -3.16264
upperneck 16.7565 -3.64057 2.32218
head 8.18242 -1.69122 0.853791
rclavicle -2.40281e-014 -1.82882e-014
rhumerus -33.1825 -23.1267 -76.7717
rradius 22.781
rwrist 8.26227
rhand -17.3575 25.6715
rfingers 7.12502
rthumb 8.89036 -4.12123
lclavicle -2.40281e-014 -1.82882e-014
lhumerus -23.9965 -5.47968 80.5287
lradius 32.8055
lwrist 9.59887
lhand -29.1784 22.5493
lfingers 7.12502
lthumb -2.524 52.5142
rfemur -29.9124 9.60181 14.8763
rtibia 15.4178
rfoot -10.9383 -15.556
rtoes -2.28011
lfemur 14.0904 -1.12816 -27.9231
ltibia 11.9832
lfoot -16.06 -2.93759
ltoes -6.35751
393
root 5.34659 17.6406 42.7923 -0.936267 -1.15303 3.15246
lowerback 9.45671 -1.11186 -5.27366
upperback 0.314747 -1.99892 1.00211
thorax -4.76389 -0.859738 4.28602
lowerneck -17.3779 -2.90709 -3.13424
upperneck 16.9271 -3.63004 2.2605
head 8.21656 -1.69158 0.83071
rclavicle 1.07592e-014 3.97569e-016
rhumerus -33.6302 -23.8248 -76.1753
rradius 22.0573
rwrist 8.64578
rhand -17.2569 24.8237
rfingers 7.12502
rthumb 8.98745 -4.96488
lclavicle 1.07592e-014 3.97569e-016
lhumerus -24.1782 -5.8134 80.5536
lradius 33.0616
lwrist 9.9979
lhand -28.9464 21.5623
lfingers 7.12502
lthumb -2.29997 51.5297
rfemur -29.7164 9.27055 15.3334
rtibia 15.5726
rfoot -11.1945 -14.9494
rtoes -5.58122
lfemur 15.0782 -1.32899 -27.6958
ltibia 11.8019
lfoot -15.8104 -3.31284
ltoes -5.92339
394
root 5.33622 17.6195 42.9967 -1.13656 -1.01851 3.16137
lowerback 9.61145 -1.17756 -5.08979
upperback 0.221275 -2.08007 0.938847
thorax -4.94865 -0.896653 4.13364
lowerneck -17.0143 -2.95082 -3.28489
upperneck 17.0229 -3.70925 2.47386
head 8.19438 -1.72015 0.920897
rclavicle 1.83876e-015 5.96354e-015
rhumerus -34.1924 -24.2944 -75.7427
rradius 21.631
rwrist 8.89331
rhand -17.428 23.8735
rfingers 7.12502
rthumb 8.82236 -5.92212
lclavicle 1.83876e-015 5.96354e-015
lhumerus -24.4133 -6.0232 80.4995
lradius 33.2904
lwrist 10.019
lhand -29.2493 22.0877
lfingers 7.12502
lthumb -2.59243 52.0517
rfemur -29.3693 7.83787 16.0317
rtibia 16.0406
rfoot -10.4357 -13.2243
rtoes -7.35419
lfemur 15.8489 -1.41027 -27.6912
ltibia 12.2541
lfoot -15.9935 -3.16497
ltoes -9.23044
395
root 5.32184 17.5917 43.1847 -1.07772 -1.06123 3.31115
lowerback 9.59375 -1.14982 -5.1649
upperback 0.158875 -2.05348 0.911293
thorax -5.00578 -0.878885 4.14448
lowerneck -16.8623 -3.03178 -3.64248
upperneck 17.047 -3.80474 2.81742
head 8.19312 -1.755 1.08421
rclavicle 2.08724e-015 1.19271e-014
rhumerus -34.6806 -24.3978 -75.4752
rradius 21.897
rwrist 9.03263
rhand -17.2227 23.0334
rfingers 7.12502
rthumb 9.02048 -6.75375
lclavicle 2.08724e-015 1.19271e-014
lhumerus -24.469 -5.99227 80.5299
lradius 33.6679
lwrist 9.94634
lhand -29.6394 22.183
lfingers 7.12502
lthumb -2.96923 52.142
rfemur -29.4226 6.46726 16.5704
rtibia 16.6345
rfoot -9.34458 -11.3377
rtoes -5.73668
lfemur 15.9101 -1.52956 -27.8851
ltibia 13.3492
lfoot -16.3515 -2.57663
ltoes -13.0197
396
root 5.29388 17.5779 43.3637 -0.909799 -1.39127 2.83933
lowerback 9.4495 -1.06063 -4.81386
upperback 0.209337 -1.87884 1.08221
thorax -4.89536 -0.803696 4.09709
lowerneck -17.1145 -3.06382 -3.77494
upperneck 17.0799 -3.84303 2.99792
head 8.25654 -1.76049 1.15864
rclavicle 5.01931e-015 8.74653e-015
rhumerus -34.6537 -24.7925 -75.3052
rradius 21.6743
rwrist 9.36913
rhand -17.2469 22.6369
rfingers 7.12502
rthumb 8.99709 -7.15127
lclavicle 5.01931e-015 8.74653e-015
lhumerus -24.1237 -5.93922 80.5084
lradius 33.7798
lwrist 9.96165
lhand -29.4185 21.2431
lfingers 7.12502
lthumb -2.75588 51.205
rfemur -29.7639 5.95023 17.6416
rtibia 17.6096
rfoot -8.37397 -10.1097
rtoes -3.60405
lfemur 15.6493 -2.01683 -27.4283
ltibia 14.5695
lfoot -16.168 -2.90255
ltoes -8.58575
397
root 5.26426 17.5654 43.5524 -0.952761 -1.74327 2.2163
lowerback 9.5076 -0.992544 -4.35189
upperback 0.260913 -1.72735 1.32373
thorax -4.89515 -0.738015 4.07104
lowerneck -17.276 -3.07817 -3.98833
upperneck 17.0258 -3.84664 3.2282
head 8.27627 -1.7508 1.26853
rclavicle -7.50412e-015 5.56597e-015
rhumerus -34.6659 -25.2828 -74.9853
rradius 21.1202
rwrist 9.77655
rhand -17.2981 23.0425
rfingers 7.12502
rthumb 8.94772 -6.74778
lclavicle -7.50412e-015 5.56597e-015
lhumerus -23.7946 -5.77202 80.4798
lradius 33.5904
lwrist 9.9337
lhand -28.8497 20.8951
lfingers 7.12502
lthumb -2.20652 50.8635
rfemur -29.7783 5.84726 18.7883
rtibia 18.8003
rfoot -7.63919 -9.41407
rtoes -2.69935
lfemur 15.5995 -2.35425 -26.784
ltibia 15.9535
lfoot -15.9426 -3.49436
ltoes -6.11983
398
root 5.23938 17.5474 43.7641 -1.12598 -1.82821 2.06295
lowerback 9.62089 -1.01008 -4.30052
upperback 0.28491 -1.74485 1.4146
thorax -4.93043 -0.746299 4.14309
lowerneck -17.5621 -3.13156 -4.04338
upperneck 17.2032 -3.91125 3.28447
head 8.39143 -1.77551 1.28513
rclavicle -2.47238e-014 7.55382e-015
rhumerus -34.8905 -25.6542 -74.6322
rradius 20.7565
rwrist 10.0832
rhand -17.1939 23.5461
rfingers 7.12502
rthumb 9.04823 -6.23988
lclavicle -2.47238e-014 7.55382e-015
lhumerus -23.8733 -5.39535 80.4366
lradius 33.6796
lwrist 9.77131
lhand -29.2907 20.9932
lfingers 7.12502
lthumb -2.63247 50.9567
rfemur -29.5636 5.42076 19.4419
rtibia 20.2368
rfoot -7.2914 -8.81665
rtoes -2.78942
lfemur 15.9591 -2.4402 -26.6094
ltibia 17.1342
lfoot -15.8974 -3.69334
ltoes -11.1887
399
root 5.21181 17.53 44.009 -1.29424 -1.81981 2.10921
lowerback 9.21352 -1.04874 -4.4389
upperback 0.444522 -1.7909 1.43085
thorax -4.52501 -0.781005 4.22711
lowerneck -17.7604 -3.10869 -3.84655
upperneck 17.4521 -3.86923 2.98599
head 8.49856 -1.7712 1.15528
rclavicle 9.01985e-015 -8.34896e-015
rhumerus -35.0948 -26.3299 -74.1869
rradius 20.3825
rwrist 10.7554
rhand -17.2896 23.4408
rfingers 7.12502
rthumb 8.95591 -6.34913
lclavicle 9.01985e-015 -8.34896e-015
lhumerus -23.9007 -4.89999 80.4054
lradius 33.7454
lwrist 9.56859
lhand -29.1509 21.1167
lfingers 7.12502
lthumb -2.49745 51.0818
rfemur -29.1151 5.11591 19.8502
rtibia 21.5728
rfoot -6.67233 -8.43038
rtoes -6.39451
lfemur 16.4776 -2.77818 -26.7543
ltibia 18.1995
lfoot -15.7393 -3.64368
ltoes -13.9873
400
root 5.20437 17.5537 44.182 -1.21234 -1.23723 2.81792
lowerback 9.7471 -1.20617 -4.95155
upperback 0.173346 -2.09512 1.24064
thorax -5.06713 -0.899214 4.38167
lowerneck -17.2981 -2.68611 -3.19142
upperneck 17.3777 -3.2737 2.01792
head 8.34068 -1.55253 0.802344
rclavicle 3.42158e-014 -1.82882e-014
rhumerus -35.4547 -27.0241 -73.4898
rradius 19.8434
rwrist 11.6843
rhand -17.4081 23.4259
rfingers 7.12502
rthumb 8.84155 -6.36887
lclavicle 3.42158e-014 -1.82882e-014
lhumerus -24.2095 -4.85733 80.5097
lradius 33.9134
lwrist 9.73942
lhand -28.7498 21.0738
lfingers 7.12502
lthumb -2.11004 51.0432
rfemur -29.7584 4.62232 19.081
rtibia 23.2202
rfoot -5.61665 -8.09249
rtoes -9.49546
lfemur 16.527 -3.55678 -27.5838
ltibia 18.8224
lfoot -14.587 -4.23986
ltoes -14.9023
401
root 5.15013 17.5689 44.4111 -1.30416 -1.68526 1.57737
lowerback 9.53995 -1.13369 -4.20597
upperback 0.188741 -1.88059 1.73629
thorax -4.96442 -0.809371 4.44567
lowerneck -17.4878 -2.8763 -3.48867
upperneck 17.5998 -3.49907 2.22891
head 8.46538 -1.65517 0.891159
rclavicle 1.59028e-015 3.57812e-015
rhumerus -35.8408 -27.8723 -72.6283
rradius 19.2435
rwrist 12.9633
rhand -17.2636 23.4263
rfingers 7.12502
rthumb 8.98099 -6.36256
lclavicle 1.59028e-015 3.57812e-015
lhumerus -24.518 -4.59712 80.6118
lradius 34.0394
lwrist 9.81031
lhand -29.3456 20.986
lfingers 7.12502
lthumb -2.68551 50.9488
rfemur -29.9371 6.25216 20.2372
rtibia 24.5188
rfoot -4.87766 -8.80695
rtoes -5.77232
lfemur 16.8339 -3.61938 -26.204
ltibia 19.7874
lfoot -13.3919 -4.47653
ltoes -18.0566
402
root 5.1492 17.5856 44.6239 -1.20096 -1.18706 1.80261
lowerback 9.40877 -1.33312 -4.13456
upperback 0.0914716 -2.137 1.68499
thorax -4.97002 -0.936423 4.38151
lowerneck -17.7095 -2.87145 -3.49437
upperneck 17.9077 -3.45907 2.08758
head 8.60556 -1.64989 0.846209
rclavicle -6.31141e-015 9.93923e-015
rhumerus -35.9767 -28.3385 -72.1227
rradius 18.7895
rwrist 13.4916
rhand -17.2388 22.637
rfingers 7.12502
rthumb 9.00496 -7.15084
lclavicle -6.31141e-015 9.93923e-015
lhumerus -24.7422 -4.12322 80.7398
lradius 34.0934
lwrist 9.38311
lhand -29.3458 21.3221
lfingers 7.12502
lthumb -2.68564 51.2849
rfemur -30.1546 5.75267 19.8148
rtibia 25.5426
rfoot -4.26371 -8.41308
rtoes 0.428172
lfemur 16.7895 -4.3469 -26.6217
ltibia 21.145
lfoot -12.1095 -4.98199
ltoes -19.639
403
root 5.13136 17.5964 44.8335 -1.17316 -1.18082 1.52218
lowerback 9.3283 -1.34351 -3.78432
upperback 0.0712703 -2.10423 1.79988
thorax -4.95722 -0.927444 4.29718
lowerneck -18.1107 -2.86201 -3.50624
upperneck 18.3773 -3.40692 1.94909
head 8.83358 -1.63814 0.802179
rclavicle -6.18717e-015 -3.97569e-015
rhumerus -36.0626 -28.761 -71.6799
rradius 18.3685
rwrist 13.9511
rhand -17.3697 22.9396
rfingers 7.12502
rthumb 8.87865 -6.85362
lclavicle -6.18717e-015 -3.97569e-015
lhumerus -24.8731 -3.71482 80.8721
lradius 34.0727
lwrist 8.98327
lhand -28.3295 22.2268
lfingers 7.12502
lthumb -1.70411 52.1998
rfemur -30.0076 5.80219 20.1174
rtibia 26.1833
rfoot -3.76342 -7.73566
rtoes 3.75246
lfemur 16.3628 -4.68939 -26.3992
ltibia 23.0762
lfoot -11.0903 -5.64731
ltoes -19.8323
404
root 5.10819 17.6091 45.0534 -1.28331 -1.33234 1.10172
lowerback 9.23051 -1.39534 -3.48025
upperback 0.073338 -2.12696 2.00907
thorax -4.90059 -0.945396 4.34401
lowerneck -17.5055 -2.5262 -3.42864
upperneck 17.9823 -2.93814 1.75381
head 8.57276 -1.43758 0.790614
rclavicle -1.15295e-014 1.31198e-014
rhumerus -36.3058 -28.7787 -71.304
rradius 18.1352
rwrist 14.407
rhand -17.6637 23.89
rfingers 7.12502
rthumb 8.59492 -5.91502
lclavicle -1.15295e-014 1.31198e-014
lhumerus -25.1311 -2.9941 80.9434
lradius 33.821
lwrist 8.87814
lhand -29.1842 22.1876
lfingers 7.12502
lthumb -2.52958 52.1523
rfemur -29.6285 5.77561 20.7553
rtibia 26.9364
rfoot -3.34075 -6.54996
rtoes 3.17587
lfemur 15.7712 -4.66486 -25.936
ltibia 25.2407
lfoot -9.6256 -6.5346
ltoes -20.6186
